<svg viewBox="0 0 16 16" xml:space="preserve" xmlns="http://www.w3.org/2000/svg" enable-background="new 0 0 16 16"><path d="M11.3 10c-.8 0-1.49.48-1.81 1.16L5.91 8.57C5.96 8.39 6 8.2 6 8s-.04-.39-.09-.57l3.58-2.59C9.81 5.52 10.5 6 11.3 6c1.1 0 2-.9 2-2s-.9-2-2-2c-1.01 0-1.84.75-1.97 1.72L5.4 6.57C5.03 6.22 4.54 6 4 6c-1.1 0-2 .9-2 2s.9 2 2 2c.54 0 1.03-.22 1.4-.57l3.93 2.85c.13.97.96 1.72 1.97 1.72 1.1 0 2-.9 2-2s-.9-2-2-2zm0-7c.55 0 1 .45 1 1s-.45 1-1 1-1-.45-1-1 .45-1 1-1zM4 9c-.55 0-1-.45-1-1s.45-1 1-1 1 .45 1 1-.45 1-1 1zm7.3 4c-.55 0-1-.45-1-1s.45-1 1-1 1 .45 1 1-.45 1-1 1z" fill="rgb(163 163 163)" class="fill-000000"></path></svg>